<svg xmlns="http://www.w3.org/2000/svg" width="50" height="50" viewBox="0 0 24 24">
    <linearGradient id="a" x1="1.464" x2="22.508" y1="22.508" y2="1.464" gradientUnits="userSpaceOnUse">
        <stop offset="0" stop-color="#f9ed32"/>
        <stop offset=".4" stop-color="#ee2a7b"/>
        <stop offset=".8" stop-color="#6228d7"/>
    </linearGradient>
    <path fill="url(#a)" d="M16 1.5h-8C4.42 1.5 2.5 3.42 2.5 6v12c0 2.58 1.92 4.5 4.5 4.5h8c2.58 0 4.5-1.92 4.5-4.5V6c0-2.58-1.92-4.5-4.5-4.5zm3 15.5c0 1.65-1.35 3-3 3h-8c-1.65 0-3-1.35-3-3V6c0-1.65 1.35-3 3-3h8c1.65 0 3 1.35 3 3v11zm-6-11c-2.76 0-5 2.24-5 5s2.24 5 5 5 5-2.24 5-5-2.24-5-5-5zm0 8c-1.66 0-3-1.34-3-3s1.34-3 3-3 3 1.34 3 3-1.34 3-3 3zm4.5-8.5c-.83 0-1.5.67-1.5 1.5S16.67 8 17.5 8s1.5-.67 1.5-1.5S18.33 5 17.5 5z"/>
</svg>
