<svg xmlns="http://www.w3.org/2000/svg" width="50" height="50" viewBox="0 0 24 24">
    <path fill="#0077B5" d="M22.23 0H1.77C.79 0 0 .77 0 1.72v20.56C0 23.23.79 24 1.77 24h20.46c.98 0 1.77-.77 1.77-1.72V1.72C24 .77 23.21 0 22.23 0zM7.09 20.45H3.56V9.16h3.53v11.29zM5.33 7.68c-1.13 0-2.05-.92-2.05-2.05s.92-2.05 2.05-2.05c1.13 0 2.05.92 2.05 2.05s-.92 2.05-2.05 2.05zm15.12 12.77h-3.53v-5.49c0-1.31-.03-3-.94-3-.94 0-1.09 1.45-1.09 2.91v5.58h-3.53V9.16h3.38v1.55h.05c.47-.89 1.62-1.82 3.34-1.82 3.57 0 4.23 2.35 4.23 5.41v6.15z"/>
</svg>
